<svg width="473" height="280" viewBox="0 0 473 280" fill="none" xmlns="http://www.w3.org/2000/svg">
<g filter="url(#filter0_d_41_548)">
<path d="M0 0H465V272H0V0Z" fill="#F7F7F7"/>
</g>
<path d="M96.9735 40.3L95.0485 39.975V38.425H103.049V39.975L100.649 40.3V55.225L105.999 55L107.574 50.325L109.599 50.6L108.824 57H94.9985V55.5L96.9735 55.25V40.3ZM110.791 53.1C110.791 51.5833 111.549 50.4417 113.066 49.675C114.599 48.9083 116.574 48.5167 118.991 48.5V47.925C118.991 47.2417 118.916 46.7083 118.766 46.325C118.633 45.9417 118.374 45.6583 117.991 45.475C117.624 45.275 117.083 45.175 116.366 45.175C115.549 45.175 114.816 45.2833 114.166 45.5C113.516 45.7 112.841 45.9667 112.141 46.3L111.366 44.7C111.616 44.4833 112.033 44.225 112.616 43.925C113.216 43.625 113.924 43.3667 114.741 43.15C115.558 42.9167 116.399 42.8 117.266 42.8C118.549 42.8 119.549 42.9667 120.266 43.3C120.999 43.6333 121.524 44.1667 121.841 44.9C122.158 45.6333 122.316 46.6167 122.316 47.85V55.5H123.666V56.9C123.333 56.9833 122.858 57.0667 122.241 57.15C121.624 57.2333 121.083 57.275 120.616 57.275C120.049 57.275 119.666 57.1917 119.466 57.025C119.283 56.8583 119.191 56.5167 119.191 56V55.325C118.741 55.825 118.158 56.275 117.441 56.675C116.724 57.075 115.916 57.275 115.016 57.275C114.249 57.275 113.541 57.1167 112.891 56.8C112.258 56.4667 111.749 55.9917 111.366 55.375C110.983 54.7417 110.791 53.9833 110.791 53.1ZM116.616 55.2C116.966 55.2 117.366 55.1 117.816 54.9C118.266 54.6833 118.658 54.425 118.991 54.125V50.025C117.491 50.025 116.366 50.2833 115.616 50.8C114.883 51.3 114.516 51.95 114.516 52.75C114.516 53.55 114.699 54.1583 115.066 54.575C115.449 54.9917 115.966 55.2 116.616 55.2ZM125.226 55.5L126.626 55.275V45.475L125.026 45.025V43.3L129.176 42.775L129.476 42.975L129.851 43.8V44.85C130.401 44.3167 131.184 43.85 132.201 43.45C133.234 43.0333 134.126 42.825 134.876 42.825C135.776 42.825 136.501 42.975 137.051 43.275C137.618 43.575 138.043 44.0417 138.326 44.675C138.876 44.175 139.601 43.7417 140.501 43.375C141.401 43.0083 142.284 42.825 143.151 42.825C144.634 42.825 145.684 43.2583 146.301 44.125C146.918 44.9917 147.226 46.4083 147.226 48.375V55.275L148.851 55.5V57H142.376V55.5L143.676 55.275V48.475C143.676 47.175 143.518 46.2667 143.201 45.75C142.901 45.2167 142.318 44.95 141.451 44.95C140.984 44.95 140.501 45.0583 140.001 45.275C139.518 45.475 139.084 45.725 138.701 46.025C138.818 46.6583 138.876 47.45 138.876 48.4V55.275L140.426 55.5V57H133.901V55.5L135.276 55.275V48.4C135.276 47.5333 135.218 46.8583 135.101 46.375C135.001 45.875 134.801 45.5167 134.501 45.3C134.201 45.0667 133.768 44.95 133.201 44.95C132.668 44.95 132.134 45.075 131.601 45.325C131.084 45.5583 130.618 45.8417 130.201 46.175V55.275L131.676 55.5V57H125.226V55.5ZM149.418 37.05L153.993 36.5H154.043L154.743 36.975V44.35C155.193 43.9 155.743 43.525 156.393 43.225C157.06 42.9083 157.777 42.75 158.543 42.75C160.143 42.75 161.443 43.3167 162.443 44.45C163.46 45.5667 163.968 47.2833 163.968 49.6C163.968 51.0333 163.668 52.3333 163.068 53.5C162.468 54.6667 161.602 55.5917 160.468 56.275C159.352 56.9417 158.052 57.275 156.568 57.275C155.252 57.275 154.11 57.1667 153.143 56.95C152.177 56.7167 151.56 56.5083 151.293 56.325V38.65L149.418 38.35V37.05ZM157.218 44.95C156.718 44.95 156.243 45.0667 155.793 45.3C155.36 45.5167 155.01 45.7667 154.743 46.05V55.175C154.843 55.3583 155.077 55.5083 155.443 55.625C155.81 55.7417 156.227 55.8 156.693 55.8C157.76 55.8 158.61 55.3083 159.243 54.325C159.893 53.325 160.218 51.85 160.218 49.9C160.218 48.2167 159.943 46.975 159.393 46.175C158.843 45.3583 158.118 44.95 157.218 44.95ZM165.998 50.075C165.998 48.5083 166.306 47.175 166.923 46.075C167.556 44.975 168.398 44.15 169.448 43.6C170.498 43.0333 171.639 42.75 172.873 42.75C174.973 42.75 176.589 43.4 177.723 44.7C178.873 45.9833 179.448 47.7333 179.448 49.95C179.448 51.5333 179.131 52.8833 178.498 54C177.881 55.1 177.048 55.925 175.998 56.475C174.964 57.0083 173.823 57.275 172.573 57.275C170.489 57.275 168.873 56.6333 167.723 55.35C166.573 54.05 165.998 52.2917 165.998 50.075ZM172.773 55.65C174.656 55.65 175.598 53.8333 175.598 50.2C175.598 48.3 175.373 46.8583 174.923 45.875C174.473 44.875 173.739 44.375 172.723 44.375C170.789 44.375 169.823 46.1917 169.823 49.825C169.823 51.725 170.056 53.175 170.523 54.175C171.006 55.1583 171.756 55.65 172.773 55.65ZM181.72 55.525L183.37 55.325V45.475L181.77 45.025V43.3L185.645 42.775H185.72L186.345 43.275V43.825L186.27 45.85H186.345C186.462 45.5167 186.737 45.1083 187.17 44.625C187.604 44.125 188.145 43.6917 188.795 43.325C189.462 42.9417 190.179 42.75 190.945 42.75C191.312 42.75 191.629 42.8 191.895 42.9V46.65C191.395 46.3 190.787 46.125 190.07 46.125C188.854 46.125 187.795 46.45 186.895 47.1V55.3L189.795 55.525V57H181.72V55.525ZM199.538 63.75C197.304 63.75 195.688 63.4 194.688 62.7C193.688 62 193.188 61.05 193.188 59.85C193.188 59.1667 193.413 58.5167 193.863 57.9C194.329 57.3 194.888 56.85 195.538 56.55C194.771 56.1 194.388 55.3833 194.388 54.4C194.388 53.8333 194.571 53.3 194.938 52.8C195.304 52.2833 195.779 51.8833 196.363 51.6C195.446 51.25 194.763 50.7167 194.313 50C193.863 49.2833 193.638 48.4333 193.638 47.45C193.638 46.5 193.913 45.675 194.463 44.975C195.029 44.2583 195.779 43.7083 196.713 43.325C197.663 42.9417 198.688 42.75 199.788 42.75C201.738 42.75 203.188 43.125 204.138 43.875C204.354 43.5917 204.721 43.325 205.238 43.075C205.754 42.825 206.288 42.7 206.838 42.7H207.713V45.425H205.138C205.388 45.9583 205.513 46.525 205.513 47.125C205.529 48.6417 204.996 49.8583 203.913 50.775C202.829 51.675 201.346 52.125 199.463 52.125C198.679 52.125 198.021 52.0667 197.488 51.95C197.321 52.1667 197.188 52.4 197.088 52.65C197.004 52.8833 196.963 53.0917 196.963 53.275C196.963 53.825 197.154 54.2 197.538 54.4C197.938 54.6 198.646 54.7 199.663 54.7H202.338C205.738 54.7 207.438 55.9333 207.438 58.4C207.438 59.4333 207.071 60.3583 206.338 61.175C205.604 61.9917 204.629 62.625 203.413 63.075C202.196 63.525 200.904 63.75 199.538 63.75ZM199.713 50.575C201.263 50.575 202.038 49.5167 202.038 47.4C202.038 46.3167 201.838 45.525 201.438 45.025C201.054 44.5083 200.463 44.25 199.663 44.25C198.879 44.25 198.271 44.5083 197.838 45.025C197.421 45.525 197.213 46.2833 197.213 47.3C197.213 49.4833 198.046 50.575 199.713 50.575ZM199.913 62.025C200.963 62.025 201.871 61.7667 202.638 61.25C203.404 60.75 203.788 60.05 203.788 59.15C203.788 58.4333 203.596 57.9167 203.213 57.6C202.846 57.2833 202.179 57.125 201.213 57.125H198.488C198.071 57.125 197.688 57.1 197.338 57.05C196.888 57.65 196.663 58.3667 196.663 59.2C196.663 60.1167 196.913 60.8167 197.413 61.3C197.913 61.7833 198.746 62.025 199.913 62.025ZM210.215 38.725L208.315 38.4V37.05L212.965 36.5H213.04L213.69 36.975L213.715 42.55L213.54 44.725C214.056 44.2583 214.756 43.825 215.64 43.425C216.54 43.025 217.481 42.825 218.465 42.825C219.515 42.825 220.331 43.025 220.915 43.425C221.498 43.8083 221.906 44.4 222.14 45.2C222.373 46 222.49 47.0667 222.49 48.4V55.275L224.09 55.5V57H217.515V55.5L218.965 55.275V48.4C218.965 47.5333 218.906 46.8583 218.79 46.375C218.673 45.8917 218.456 45.5333 218.14 45.3C217.84 45.0667 217.39 44.95 216.79 44.95C216.273 44.95 215.74 45.075 215.19 45.325C214.656 45.5583 214.181 45.8417 213.765 46.175V55.275L215.29 55.5V57H208.815V55.5L210.215 55.3V38.725ZM228.763 40.825C228.163 40.825 227.688 40.65 227.338 40.3C226.988 39.95 226.813 39.5 226.813 38.95C226.813 38.3167 227.013 37.7917 227.413 37.375C227.813 36.9583 228.346 36.75 229.013 36.75C229.679 36.75 230.188 36.9333 230.538 37.3C230.888 37.65 231.063 38.0917 231.063 38.625C231.063 39.2917 230.863 39.825 230.463 40.225C230.063 40.625 229.504 40.825 228.788 40.825H228.763ZM227.438 45.475L225.663 45V43.325L230.238 42.775H230.288L230.988 43.275V55.3L232.663 55.5V57H225.688V55.5L227.438 55.275V45.475ZM235.855 45.475L234.255 45.025V43.3L238.405 42.775H238.48L239.105 43.275V44.25L239.08 44.85C239.663 44.3 240.421 43.825 241.355 43.425C242.288 43.025 243.23 42.825 244.18 42.825C245.196 42.825 245.988 43.0167 246.555 43.4C247.138 43.7667 247.555 44.35 247.805 45.15C248.055 45.95 248.18 47.0333 248.18 48.4V55.3L249.705 55.5V57H243.255V55.5L244.605 55.3V48.4C244.605 47.5333 244.546 46.8583 244.43 46.375C244.313 45.875 244.096 45.5167 243.78 45.3C243.48 45.0667 243.046 44.95 242.48 44.95C241.53 44.95 240.513 45.3583 239.43 46.175V55.275L240.93 55.5V57H234.405V55.5L235.855 55.275V45.475ZM254.446 40.825C253.846 40.825 253.371 40.65 253.021 40.3C252.671 39.95 252.496 39.5 252.496 38.95C252.496 38.3167 252.696 37.7917 253.096 37.375C253.496 36.9583 254.03 36.75 254.696 36.75C255.363 36.75 255.871 36.9333 256.221 37.3C256.571 37.65 256.746 38.0917 256.746 38.625C256.746 39.2917 256.546 39.825 256.146 40.225C255.746 40.625 255.188 40.825 254.471 40.825H254.446ZM253.121 45.475L251.346 45V43.325L255.921 42.775H255.971L256.671 43.275V55.3L258.346 55.5V57H251.371V55.5L253.121 55.275V45.475ZM274.596 57.275C272.762 57.275 271.179 56.875 269.846 56.075C268.529 55.2583 267.529 54.1417 266.846 52.725C266.162 51.3083 265.821 49.7083 265.821 47.925C265.821 45.875 266.212 44.1167 266.996 42.65C267.796 41.1833 268.921 40.075 270.371 39.325C271.821 38.575 273.512 38.2 275.446 38.2C277.262 38.2 279.304 38.4583 281.571 38.975L281.296 43.625H278.771L278.096 40.425C277.929 40.2583 277.612 40.1083 277.146 39.975C276.679 39.825 276.071 39.75 275.321 39.75C273.687 39.75 272.404 40.4167 271.471 41.75C270.537 43.0667 270.071 44.975 270.071 47.475C270.071 49.925 270.471 51.9083 271.271 53.425C272.071 54.925 273.287 55.675 274.921 55.675C275.587 55.675 276.212 55.5917 276.796 55.425C277.379 55.2583 277.821 55.0417 278.121 54.775V49.4L275.471 49.15V47.475H283.071V49.15L281.746 49.375V56C281.396 56.0167 280.762 56.1583 279.846 56.425C278.779 56.7083 277.862 56.9167 277.096 57.05C276.346 57.2 275.512 57.275 274.596 57.275ZM284.399 53.1C284.399 51.5833 285.158 50.4417 286.674 49.675C288.208 48.9083 290.183 48.5167 292.599 48.5V47.925C292.599 47.2417 292.524 46.7083 292.374 46.325C292.241 45.9417 291.983 45.6583 291.599 45.475C291.233 45.275 290.691 45.175 289.974 45.175C289.158 45.175 288.424 45.2833 287.774 45.5C287.124 45.7 286.449 45.9667 285.749 46.3L284.974 44.7C285.224 44.4833 285.641 44.225 286.224 43.925C286.824 43.625 287.533 43.3667 288.349 43.15C289.166 42.9167 290.008 42.8 290.874 42.8C292.158 42.8 293.158 42.9667 293.874 43.3C294.608 43.6333 295.133 44.1667 295.449 44.9C295.766 45.6333 295.924 46.6167 295.924 47.85V55.5H297.274V56.9C296.941 56.9833 296.466 57.0667 295.849 57.15C295.233 57.2333 294.691 57.275 294.224 57.275C293.658 57.275 293.274 57.1917 293.074 57.025C292.891 56.8583 292.799 56.5167 292.799 56V55.325C292.349 55.825 291.766 56.275 291.049 56.675C290.333 57.075 289.524 57.275 288.624 57.275C287.858 57.275 287.149 57.1167 286.499 56.8C285.866 56.4667 285.358 55.9917 284.974 55.375C284.591 54.7417 284.399 53.9833 284.399 53.1ZM290.224 55.2C290.574 55.2 290.974 55.1 291.424 54.9C291.874 54.6833 292.266 54.425 292.599 54.125V50.025C291.099 50.025 289.974 50.2833 289.224 50.8C288.491 51.3 288.124 51.95 288.124 52.75C288.124 53.55 288.308 54.1583 288.674 54.575C289.058 54.9917 289.574 55.2 290.224 55.2ZM300.284 38.725L298.434 38.4V37.05L303.059 36.5H303.109L303.784 36.975V55.3L305.609 55.5V57H298.534V55.5L300.284 55.275V38.725ZM308.781 38.725L306.931 38.4V37.05L311.556 36.5H311.606L312.281 36.975V55.3L314.106 55.5V57H307.031V55.5L308.781 55.275V38.725ZM315.552 53.1C315.552 51.5833 316.31 50.4417 317.827 49.675C319.36 48.9083 321.335 48.5167 323.752 48.5V47.925C323.752 47.2417 323.677 46.7083 323.527 46.325C323.393 45.9417 323.135 45.6583 322.752 45.475C322.385 45.275 321.843 45.175 321.127 45.175C320.31 45.175 319.577 45.2833 318.927 45.5C318.277 45.7 317.602 45.9667 316.902 46.3L316.127 44.7C316.377 44.4833 316.793 44.225 317.377 43.925C317.977 43.625 318.685 43.3667 319.502 43.15C320.318 42.9167 321.16 42.8 322.027 42.8C323.31 42.8 324.31 42.9667 325.027 43.3C325.76 43.6333 326.285 44.1667 326.602 44.9C326.918 45.6333 327.077 46.6167 327.077 47.85V55.5H328.427V56.9C328.093 56.9833 327.618 57.0667 327.002 57.15C326.385 57.2333 325.843 57.275 325.377 57.275C324.81 57.275 324.427 57.1917 324.227 57.025C324.043 56.8583 323.952 56.5167 323.952 56V55.325C323.502 55.825 322.918 56.275 322.202 56.675C321.485 57.075 320.677 57.275 319.777 57.275C319.01 57.275 318.302 57.1167 317.652 56.8C317.018 56.4667 316.51 55.9917 316.127 55.375C315.743 54.7417 315.552 53.9833 315.552 53.1ZM321.377 55.2C321.727 55.2 322.127 55.1 322.577 54.9C323.027 54.6833 323.418 54.425 323.752 54.125V50.025C322.252 50.025 321.127 50.2833 320.377 50.8C319.643 51.3 319.277 51.95 319.277 52.75C319.277 53.55 319.46 54.1583 319.827 54.575C320.21 54.9917 320.727 55.2 321.377 55.2ZM329.987 55.525L331.637 55.325V45.475L330.037 45.025V43.3L333.912 42.775H333.987L334.612 43.275V43.825L334.537 45.85H334.612C334.728 45.5167 335.003 45.1083 335.437 44.625C335.87 44.125 336.412 43.6917 337.062 43.325C337.728 42.9417 338.445 42.75 339.212 42.75C339.578 42.75 339.895 42.8 340.162 42.9V46.65C339.662 46.3 339.053 46.125 338.337 46.125C337.12 46.125 336.062 46.45 335.162 47.1V55.3L338.062 55.525V57H329.987V55.525ZM346.979 57.275C345.946 57.275 345.021 57.0333 344.204 56.55C343.388 56.05 342.738 55.2833 342.254 54.25C341.771 53.2167 341.529 51.925 341.529 50.375C341.529 48.975 341.813 47.7 342.379 46.55C342.963 45.3833 343.813 44.4583 344.929 43.775C346.046 43.0917 347.388 42.75 348.954 42.75C349.588 42.75 350.188 42.8167 350.754 42.95V38.725L348.304 38.375V37L353.454 36.5H353.529L354.229 37.025V55.475H355.579V56.9C354.379 57.15 353.388 57.275 352.604 57.275C352.071 57.275 351.688 57.1833 351.454 57C351.238 56.8333 351.129 56.4917 351.129 55.975V55.275C350.696 55.8583 350.104 56.3417 349.354 56.725C348.604 57.0917 347.813 57.275 346.979 57.275ZM348.279 55.2C348.829 55.2 349.313 55.0917 349.729 54.875C350.163 54.6417 350.504 54.3667 350.754 54.05V44.95C350.638 44.7833 350.388 44.6417 350.004 44.525C349.638 44.4083 349.238 44.35 348.804 44.35C347.738 44.35 346.879 44.8167 346.229 45.75C345.596 46.6667 345.279 48.1417 345.279 50.175C345.279 51.875 345.554 53.1417 346.104 53.975C346.654 54.7917 347.379 55.2 348.279 55.2ZM357.404 50.075C357.404 48.5083 357.712 47.175 358.329 46.075C358.962 44.975 359.804 44.15 360.854 43.6C361.904 43.0333 363.045 42.75 364.279 42.75C366.379 42.75 367.995 43.4 369.129 44.7C370.279 45.9833 370.854 47.7333 370.854 49.95C370.854 51.5333 370.537 52.8833 369.904 54C369.287 55.1 368.454 55.925 367.404 56.475C366.37 57.0083 365.229 57.275 363.979 57.275C361.895 57.275 360.279 56.6333 359.129 55.35C357.979 54.05 357.404 52.2917 357.404 50.075ZM364.179 55.65C366.062 55.65 367.004 53.8333 367.004 50.2C367.004 48.3 366.779 46.8583 366.329 45.875C365.879 44.875 365.145 44.375 364.129 44.375C362.195 44.375 361.229 46.1917 361.229 49.825C361.229 51.725 361.462 53.175 361.929 54.175C362.412 55.1583 363.162 55.65 364.179 55.65Z" fill="black"/>
<path d="M326.243 153.804C326.243 154.284 326.119 154.688 325.871 155.016C325.623 155.336 325.287 155.58 324.863 155.748C324.447 155.916 323.991 156 323.495 156H319.379V147.48H323.939C324.339 147.48 324.683 147.588 324.971 147.804C325.259 148.012 325.483 148.284 325.643 148.62C325.803 148.956 325.883 149.3 325.883 149.652C325.883 150.068 325.779 150.46 325.571 150.828C325.363 151.188 325.059 151.456 324.659 151.632C325.147 151.776 325.531 152.036 325.811 152.412C326.099 152.788 326.243 153.252 326.243 153.804ZM321.035 148.896V151.044H323.243C323.515 151.044 323.751 150.948 323.951 150.756C324.151 150.564 324.251 150.3 324.251 149.964C324.251 149.644 324.159 149.388 323.975 149.196C323.799 148.996 323.579 148.896 323.315 148.896H321.035ZM324.575 153.492C324.575 153.18 324.479 152.912 324.287 152.688C324.095 152.464 323.859 152.352 323.579 152.352H321.035V154.596H323.495C323.799 154.596 324.055 154.488 324.263 154.272C324.471 154.056 324.575 153.796 324.575 153.492ZM327.379 148.836V147.24H328.987V148.836H327.379ZM327.379 156V149.712H328.987V156H327.379ZM330.006 154.14C330.006 153.732 330.118 153.376 330.342 153.072C330.574 152.76 330.894 152.52 331.302 152.352C331.71 152.184 332.178 152.1 332.706 152.1C332.97 152.1 333.238 152.124 333.51 152.172C333.782 152.212 334.018 152.272 334.218 152.352V152.016C334.218 151.616 334.098 151.308 333.858 151.092C333.626 150.876 333.278 150.768 332.814 150.768C332.47 150.768 332.142 150.828 331.83 150.948C331.518 151.068 331.19 151.244 330.846 151.476L330.33 150.42C330.746 150.148 331.17 149.944 331.602 149.808C332.042 149.672 332.502 149.604 332.982 149.604C333.878 149.604 334.574 149.828 335.07 150.276C335.574 150.724 335.826 151.364 335.826 152.196V154.2C335.826 154.376 335.854 154.5 335.91 154.572C335.966 154.636 336.066 154.676 336.21 154.692V156C336.066 156.032 335.934 156.052 335.814 156.06C335.702 156.076 335.606 156.084 335.526 156.084C335.206 156.084 334.962 156.012 334.794 155.868C334.626 155.724 334.526 155.548 334.494 155.34L334.458 155.016C334.178 155.376 333.834 155.652 333.426 155.844C333.026 156.028 332.614 156.12 332.19 156.12C331.766 156.12 331.39 156.036 331.062 155.868C330.734 155.692 330.474 155.456 330.282 155.16C330.098 154.856 330.006 154.516 330.006 154.14ZM333.918 154.464C334.118 154.272 334.218 154.088 334.218 153.912V153.276C333.802 153.108 333.382 153.024 332.958 153.024C332.534 153.024 332.19 153.116 331.926 153.3C331.662 153.476 331.53 153.712 331.53 154.008C331.53 154.248 331.626 154.464 331.818 154.656C332.01 154.848 332.286 154.944 332.646 154.944C332.886 154.944 333.118 154.9 333.342 154.812C333.574 154.724 333.766 154.608 333.918 154.464ZM336.993 152.772L336.585 151.908L337.605 151.296V147.24H339.213V150.324L340.245 149.712L340.653 150.576L339.213 151.44V153.984C339.213 154.28 339.261 154.476 339.357 154.572C339.453 154.668 339.585 154.716 339.753 154.716C339.889 154.716 340.021 154.7 340.149 154.668C340.285 154.636 340.405 154.596 340.509 154.548L340.725 155.772C340.509 155.876 340.257 155.956 339.969 156.012C339.681 156.068 339.421 156.096 339.189 156.096C338.693 156.096 338.305 155.964 338.025 155.7C337.745 155.428 337.605 155.044 337.605 154.548V152.4L336.993 152.772ZM341.445 157.224C341.741 157.304 341.981 157.344 342.165 157.344C342.381 157.344 342.553 157.252 342.681 157.068C342.817 156.892 342.969 156.536 343.137 156L340.653 149.712H342.321L344.013 154.356L345.501 149.712H347.037L344.397 157.248C344.253 157.68 343.993 158.036 343.617 158.316C343.249 158.604 342.793 158.748 342.249 158.748C341.985 158.748 341.717 158.704 341.445 158.616V157.224Z" fill="#333333"/>
<path d="M303.601 154.379C303.537 154.424 302.202 155.859 302.202 156.866C302.202 157.928 302.866 158.606 303.601 158.643C304.235 158.674 305 158.01 305 156.866C305 155.8 303.665 154.424 303.601 154.379ZM296.317 158.643C296.581 158.911 296.933 159.059 297.306 159.059C297.68 159.059 298.031 158.911 298.295 158.643L303.191 153.668L302.697 153.166L297.306 147.689L295.702 146.059L294.713 147.064L296.317 148.694L292.41 152.663C292.145 152.932 292 153.289 292 153.668C292 154.048 292.145 154.404 292.41 154.673L296.317 158.643ZM297.306 149.698L301.213 153.668H293.399L297.306 149.698Z" fill="#333333"/>
<path d="M318.372 103.68C318.372 103.16 318.464 102.648 318.648 102.144C318.84 101.64 319.116 101.184 319.476 100.776C319.836 100.368 320.276 100.044 320.796 99.804C321.316 99.556 321.908 99.432 322.572 99.432C323.348 99.432 324.024 99.604 324.6 99.948C325.176 100.292 325.604 100.74 325.884 101.292L324.612 102.168C324.468 101.848 324.28 101.596 324.048 101.412C323.816 101.228 323.564 101.096 323.292 101.016C323.028 100.936 322.772 100.896 322.524 100.896C322.108 100.896 321.744 100.98 321.432 101.148C321.128 101.316 320.872 101.536 320.664 101.808C320.456 102.08 320.3 102.384 320.196 102.72C320.1 103.056 320.052 103.392 320.052 103.728C320.052 104.232 320.156 104.704 320.364 105.144C320.572 105.576 320.864 105.928 321.24 106.2C321.616 106.472 322.052 106.608 322.548 106.608C322.804 106.608 323.068 106.564 323.34 106.476C323.62 106.388 323.876 106.248 324.108 106.056C324.34 105.864 324.52 105.616 324.648 105.312L326.004 106.092C325.828 106.516 325.552 106.876 325.176 107.172C324.8 107.46 324.376 107.684 323.904 107.844C323.432 107.996 322.964 108.072 322.5 108.072C321.892 108.072 321.336 107.948 320.832 107.7C320.336 107.444 319.904 107.108 319.536 106.692C319.168 106.268 318.88 105.796 318.672 105.276C318.472 104.748 318.372 104.216 318.372 103.68ZM329.839 108.12C329.151 108.12 328.559 107.972 328.063 107.676C327.575 107.372 327.199 106.972 326.935 106.476C326.671 105.98 326.539 105.444 326.539 104.868C326.539 104.284 326.671 103.744 326.935 103.248C327.207 102.752 327.587 102.356 328.075 102.06C328.571 101.756 329.159 101.604 329.839 101.604C330.519 101.604 331.103 101.756 331.591 102.06C332.087 102.356 332.467 102.752 332.731 103.248C332.995 103.744 333.127 104.284 333.127 104.868C333.127 105.444 332.995 105.98 332.731 106.476C332.467 106.972 332.087 107.372 331.591 107.676C331.103 107.972 330.519 108.12 329.839 108.12ZM328.195 104.868C328.195 105.236 328.267 105.564 328.411 105.852C328.555 106.132 328.751 106.352 328.999 106.512C329.247 106.672 329.527 106.752 329.839 106.752C330.143 106.752 330.419 106.672 330.667 106.512C330.915 106.344 331.111 106.12 331.255 105.84C331.407 105.552 331.483 105.224 331.483 104.856C331.483 104.496 331.407 104.176 331.255 103.896C331.111 103.608 330.915 103.384 330.667 103.224C330.419 103.056 330.143 102.972 329.839 102.972C329.527 102.972 329.247 103.056 328.999 103.224C328.751 103.384 328.555 103.608 328.411 103.896C328.267 104.176 328.195 104.5 328.195 104.868ZM334.152 105.648V101.712H335.76V105.3C335.76 106.268 336.108 106.752 336.804 106.752C337.116 106.752 337.416 106.66 337.704 106.476C338 106.284 338.24 105.996 338.424 105.612V101.712H340.032V106.2C340.032 106.376 340.06 106.5 340.116 106.572C340.172 106.636 340.272 106.676 340.416 106.692V108C340.256 108.032 340.12 108.052 340.008 108.06C339.904 108.068 339.808 108.072 339.72 108.072C339.432 108.072 339.196 108.008 339.012 107.88C338.836 107.744 338.732 107.56 338.7 107.328L338.664 106.824C338.384 107.256 338.024 107.58 337.584 107.796C337.144 108.012 336.66 108.12 336.132 108.12C335.484 108.12 334.992 107.912 334.656 107.496C334.32 107.072 334.152 106.456 334.152 105.648ZM345.398 108.12C344.902 108.12 344.47 108.008 344.102 107.784C343.734 107.56 343.446 107.264 343.238 106.896V110.556H341.63V101.712H343.034V102.792C343.266 102.424 343.566 102.136 343.934 101.928C344.31 101.712 344.734 101.604 345.206 101.604C345.774 101.604 346.278 101.752 346.718 102.048C347.158 102.336 347.506 102.728 347.762 103.224C348.018 103.712 348.146 104.252 348.146 104.844C348.146 105.46 348.026 106.016 347.786 106.512C347.554 107 347.23 107.392 346.814 107.688C346.406 107.976 345.934 108.12 345.398 108.12ZM344.858 106.752C345.186 106.752 345.47 106.664 345.71 106.488C345.958 106.304 346.15 106.068 346.286 105.78C346.43 105.484 346.502 105.172 346.502 104.844C346.502 104.492 346.426 104.176 346.274 103.896C346.122 103.608 345.914 103.384 345.65 103.224C345.394 103.056 345.098 102.972 344.762 102.972C344.458 102.972 344.154 103.072 343.85 103.272C343.546 103.472 343.342 103.724 343.238 104.028V105.504C343.382 105.856 343.602 106.152 343.898 106.392C344.194 106.632 344.514 106.752 344.858 106.752ZM352.152 108.12C351.472 108.12 350.884 107.972 350.388 107.676C349.9 107.38 349.52 106.988 349.248 106.5C348.976 106.004 348.84 105.468 348.84 104.892C348.84 104.3 348.972 103.756 349.236 103.26C349.508 102.756 349.892 102.356 350.388 102.06C350.884 101.756 351.476 101.604 352.164 101.604C352.852 101.604 353.44 101.756 353.928 102.06C354.416 102.356 354.788 102.752 355.044 103.248C355.308 103.736 355.44 104.264 355.44 104.832C355.44 105.04 355.428 105.22 355.404 105.372H350.544C350.584 105.86 350.764 106.244 351.084 106.524C351.412 106.804 351.788 106.944 352.212 106.944C352.532 106.944 352.832 106.868 353.112 106.716C353.4 106.556 353.596 106.348 353.7 106.092L355.08 106.476C354.848 106.956 354.476 107.352 353.964 107.664C353.452 107.968 352.848 108.12 352.152 108.12ZM350.508 104.352H353.796C353.748 103.88 353.568 103.5 353.256 103.212C352.952 102.916 352.58 102.768 352.14 102.768C351.708 102.768 351.336 102.916 351.024 103.212C350.72 103.5 350.548 103.88 350.508 104.352Z" fill="#333333"/>
<path d="M304.625 101.495H302.754L302.234 100.194C301.699 98.8571 300.424 97.9932 298.984 97.9932H295.016C293.576 97.9932 292.301 98.8571 291.766 100.194L291.246 101.495H289.375C289.131 101.495 288.952 101.725 289.011 101.961L289.199 102.712C289.241 102.879 289.391 102.996 289.563 102.996H290.19C289.77 103.363 289.5 103.896 289.5 104.497V105.998C289.5 106.502 289.692 106.957 290 107.309V108.999C290 109.552 290.448 110 291 110H292C292.552 110 293 109.552 293 108.999V107.999H301V108.999C301 109.552 301.448 110 302 110H303C303.552 110 304 109.552 304 108.999V107.309C304.307 106.957 304.5 106.502 304.5 105.998V104.497C304.5 103.896 304.23 103.363 303.81 102.996H304.437C304.61 102.996 304.76 102.879 304.801 102.712L304.989 101.961C305.048 101.725 304.869 101.495 304.625 101.495ZM293.623 100.938C293.851 100.368 294.402 99.9943 295.016 99.9943H298.984C299.598 99.9943 300.149 100.368 300.377 100.938L301 102.496H293L293.623 100.938ZM292 105.991C291.4 105.991 291 105.592 291 104.994C291 104.396 291.4 103.997 292 103.997C292.6 103.997 293.5 104.894 293.5 105.493C293.5 106.091 292.6 105.991 292 105.991ZM302 105.991C301.4 105.991 300.5 106.091 300.5 105.493C300.5 104.894 301.4 103.997 302 103.997C302.6 103.997 303 104.396 303 104.994C303 105.592 302.6 105.991 302 105.991Z" fill="#333333"/>
<path d="M321.519 133.788C320.903 133.788 320.347 133.656 319.851 133.392C319.355 133.128 318.979 132.768 318.723 132.312L319.647 131.352C319.871 131.664 320.151 131.912 320.487 132.096C320.823 132.28 321.171 132.372 321.531 132.372C321.963 132.372 322.315 132.24 322.587 131.976C322.867 131.712 323.007 131.368 323.007 130.944C323.007 130.528 322.875 130.192 322.611 129.936C322.347 129.68 322.019 129.552 321.627 129.552C321.363 129.552 321.115 129.612 320.883 129.732C320.659 129.844 320.479 130.008 320.343 130.224H318.939L319.923 125.148H324.123V126.612H321.087L320.739 128.52C320.835 128.424 320.975 128.344 321.159 128.28C321.351 128.208 321.583 128.172 321.855 128.172C322.391 128.172 322.867 128.288 323.283 128.52C323.707 128.752 324.039 129.076 324.279 129.492C324.527 129.9 324.651 130.372 324.651 130.908C324.651 131.484 324.515 131.988 324.243 132.42C323.971 132.852 323.599 133.188 323.127 133.428C322.655 133.668 322.119 133.788 321.519 133.788ZM325.716 132V130.272H327.036V132H325.716ZM328.171 132C328.171 131.528 328.223 131.108 328.327 130.74C328.439 130.372 328.631 130.04 328.903 129.744C329.175 129.448 329.559 129.16 330.055 128.88C330.495 128.648 330.863 128.452 331.159 128.292C331.455 128.132 331.679 127.98 331.831 127.836C331.991 127.684 332.071 127.508 332.071 127.308C332.071 127.068 331.975 126.864 331.783 126.696C331.591 126.52 331.319 126.432 330.967 126.432C330.583 126.432 330.251 126.524 329.971 126.708C329.699 126.892 329.463 127.104 329.263 127.344L328.243 126.168C328.387 126.016 328.603 125.852 328.891 125.676C329.179 125.5 329.523 125.348 329.923 125.22C330.323 125.092 330.763 125.028 331.243 125.028C332.059 125.028 332.691 125.22 333.139 125.604C333.595 125.98 333.823 126.468 333.823 127.068C333.823 127.444 333.735 127.764 333.559 128.028C333.391 128.284 333.179 128.504 332.923 128.688C332.675 128.864 332.435 129.02 332.203 129.156C331.691 129.412 331.287 129.636 330.991 129.828C330.703 130.02 330.471 130.26 330.295 130.548H333.955V132H328.171ZM335.208 123.24H336.816V129.984C336.816 130.28 336.864 130.476 336.96 130.572C337.056 130.668 337.188 130.716 337.356 130.716C337.484 130.716 337.616 130.7 337.752 130.668C337.888 130.636 338.008 130.596 338.112 130.548L338.328 131.772C338.112 131.876 337.86 131.956 337.572 132.012C337.284 132.068 337.024 132.096 336.792 132.096C336.288 132.096 335.896 131.964 335.616 131.7C335.344 131.428 335.208 131.044 335.208 130.548V123.24ZM342.205 123.48L344.509 130.032L346.789 123.48H348.529L345.301 132H343.705L340.465 123.48H342.205ZM353.933 130.548V132H349.061V130.548H350.765V126.912C350.669 127.032 350.505 127.16 350.273 127.296C350.049 127.432 349.801 127.548 349.529 127.644C349.265 127.74 349.029 127.788 348.821 127.788V126.288C348.965 126.288 349.137 126.244 349.337 126.156C349.545 126.06 349.749 125.948 349.949 125.82C350.157 125.692 350.333 125.568 350.477 125.448C350.629 125.32 350.725 125.22 350.765 125.148H352.409V130.548H353.933ZM361.003 128.484C361.003 129.188 360.867 129.816 360.595 130.368C360.331 130.912 359.963 131.34 359.491 131.652C359.027 131.964 358.499 132.12 357.907 132.12C357.315 132.12 356.783 131.964 356.311 131.652C355.847 131.34 355.479 130.912 355.207 130.368C354.943 129.816 354.811 129.188 354.811 128.484C354.811 127.78 354.943 127.156 355.207 126.612C355.479 126.06 355.847 125.628 356.311 125.316C356.783 124.996 357.315 124.836 357.907 124.836C358.499 124.836 359.027 124.996 359.491 125.316C359.963 125.628 360.331 126.06 360.595 126.612C360.867 127.156 361.003 127.78 361.003 128.484ZM359.383 128.484C359.383 127.844 359.243 127.324 358.963 126.924C358.691 126.516 358.339 126.312 357.907 126.312C357.459 126.312 357.099 126.516 356.827 126.924C356.555 127.324 356.419 127.844 356.419 128.484C356.419 129.124 356.555 129.644 356.827 130.044C357.099 130.444 357.459 130.644 357.907 130.644C358.339 130.644 358.691 130.444 358.963 130.044C359.243 129.644 359.383 129.124 359.383 128.484Z" fill="#333333"/>
<path d="M293.75 121.73V123.149H295.625V124.568H293.75L292.5 125.987V128.115H291.25V125.987H290V131.662H291.25V129.534H292.5V131.662H294.375L295.625 133.081H300.625V130.243H301.875V132.372H303.75V125.277H301.875V127.406H300.625V124.568H296.875V123.149H298.75V121.73H293.75Z" fill="#333333"/>
<path d="M320.769 181.788C320.153 181.788 319.597 181.656 319.101 181.392C318.605 181.128 318.229 180.768 317.973 180.312L318.897 179.352C319.121 179.664 319.401 179.912 319.737 180.096C320.073 180.28 320.421 180.372 320.781 180.372C321.213 180.372 321.565 180.24 321.837 179.976C322.117 179.712 322.257 179.368 322.257 178.944C322.257 178.528 322.125 178.192 321.861 177.936C321.597 177.68 321.269 177.552 320.877 177.552C320.613 177.552 320.365 177.612 320.133 177.732C319.909 177.844 319.729 178.008 319.593 178.224H318.189L319.173 173.148H323.373V174.612H320.337L319.989 176.52C320.085 176.424 320.225 176.344 320.409 176.28C320.601 176.208 320.833 176.172 321.105 176.172C321.641 176.172 322.117 176.288 322.533 176.52C322.957 176.752 323.289 177.076 323.529 177.492C323.777 177.9 323.901 178.372 323.901 178.908C323.901 179.484 323.765 179.988 323.493 180.42C323.221 180.852 322.849 181.188 322.377 181.428C321.905 181.668 321.369 181.788 320.769 181.788ZM328.482 174.468H324.606V173.004H331.014L326.79 181.524H324.966L328.482 174.468ZM337.776 176.484C337.776 177.188 337.64 177.816 337.368 178.368C337.104 178.912 336.736 179.34 336.264 179.652C335.8 179.964 335.272 180.12 334.68 180.12C334.088 180.12 333.556 179.964 333.084 179.652C332.62 179.34 332.252 178.912 331.98 178.368C331.716 177.816 331.584 177.188 331.584 176.484C331.584 175.78 331.716 175.156 331.98 174.612C332.252 174.06 332.62 173.628 333.084 173.316C333.556 172.996 334.088 172.836 334.68 172.836C335.272 172.836 335.8 172.996 336.264 173.316C336.736 173.628 337.104 174.06 337.368 174.612C337.64 175.156 337.776 175.78 337.776 176.484ZM336.156 176.484C336.156 175.844 336.016 175.324 335.736 174.924C335.464 174.516 335.112 174.312 334.68 174.312C334.232 174.312 333.872 174.516 333.6 174.924C333.328 175.324 333.192 175.844 333.192 176.484C333.192 177.124 333.328 177.644 333.6 178.044C333.872 178.444 334.232 178.644 334.68 178.644C335.112 178.644 335.464 178.444 335.736 178.044C336.016 177.644 336.156 177.124 336.156 176.484ZM346.278 180L344.442 177.288L343.59 178.128V180H341.982V171.24H343.59V176.544L346.122 173.724H347.826L345.486 176.388L347.994 180H346.278ZM351.249 180.12C350.561 180.12 349.969 179.972 349.473 179.676C348.985 179.372 348.609 178.972 348.345 178.476C348.081 177.98 347.949 177.444 347.949 176.868C347.949 176.284 348.081 175.744 348.345 175.248C348.617 174.752 348.997 174.356 349.485 174.06C349.981 173.756 350.569 173.604 351.249 173.604C351.929 173.604 352.513 173.756 353.001 174.06C353.497 174.356 353.877 174.752 354.141 175.248C354.405 175.744 354.537 176.284 354.537 176.868C354.537 177.444 354.405 177.98 354.141 178.476C353.877 178.972 353.497 179.372 353.001 179.676C352.513 179.972 351.929 180.12 351.249 180.12ZM349.605 176.868C349.605 177.236 349.677 177.564 349.821 177.852C349.965 178.132 350.161 178.352 350.409 178.512C350.657 178.672 350.937 178.752 351.249 178.752C351.553 178.752 351.829 178.672 352.077 178.512C352.325 178.344 352.521 178.12 352.665 177.84C352.817 177.552 352.893 177.224 352.893 176.856C352.893 176.496 352.817 176.176 352.665 175.896C352.521 175.608 352.325 175.384 352.077 175.224C351.829 175.056 351.553 174.972 351.249 174.972C350.937 174.972 350.657 175.056 350.409 175.224C350.161 175.384 349.965 175.608 349.821 175.896C349.677 176.176 349.605 176.5 349.605 176.868ZM361.467 180H359.859V176.472C359.859 175.968 359.771 175.6 359.595 175.368C359.419 175.136 359.175 175.02 358.863 175.02C358.647 175.02 358.427 175.076 358.203 175.188C357.987 175.3 357.791 175.456 357.615 175.656C357.439 175.848 357.311 176.072 357.231 176.328V180H355.623V173.712H357.075V174.876C357.307 174.484 357.643 174.176 358.083 173.952C358.523 173.72 359.019 173.604 359.571 173.604C359.963 173.604 360.283 173.676 360.531 173.82C360.779 173.956 360.971 174.144 361.107 174.384C361.243 174.616 361.335 174.88 361.383 175.176C361.439 175.472 361.467 175.772 361.467 176.076V180ZM362.865 172.836V171.24H364.473V172.836H362.865ZM362.865 180V173.712H364.473V180H362.865Z" fill="#333333"/>
<path d="M303.927 180.336L300.287 170.876C300.157 170.54 299.875 170.324 299.565 170.324H297.023L297.087 171.009C297.1 171.148 297.004 171.27 296.88 171.27H296.12C295.997 171.27 295.9 171.148 295.913 171.009L295.977 170.324H293.436C293.125 170.324 292.843 170.54 292.713 170.876L289.073 180.336C288.832 180.962 289.217 181.676 289.795 181.676H294.921L295.19 178.788C295.212 178.548 295.391 178.365 295.604 178.365H297.396C297.609 178.365 297.788 178.548 297.81 178.788L298.079 181.676H303.205C303.784 181.676 304.168 180.962 303.927 180.336ZM295.781 172.428C295.787 172.37 295.811 172.316 295.849 172.277C295.888 172.238 295.937 172.216 295.989 172.216H297.012C297.118 172.216 297.208 172.308 297.219 172.428L297.339 173.716C297.358 173.926 297.214 174.108 297.028 174.108H295.973C295.787 174.108 295.642 173.926 295.662 173.716L295.781 172.428ZM297.22 177.419H295.78C295.533 177.419 295.34 177.176 295.366 176.896L295.498 175.477C295.52 175.237 295.699 175.054 295.912 175.054H297.088C297.301 175.054 297.48 175.237 297.502 175.477L297.634 176.896C297.66 177.176 297.467 177.419 297.22 177.419Z" fill="#333333"/>
<defs>
<filter id="filter0_d_41_548" x="0" y="0" width="473" height="280" filterUnits="userSpaceOnUse" color-interpolation-filters="sRGB">
<feFlood flood-opacity="0" result="BackgroundImageFix"/>
<feColorMatrix in="SourceAlpha" type="matrix" values="0 0 0 0 0 0 0 0 0 0 0 0 0 0 0 0 0 0 127 0" result="hardAlpha"/>
<feOffset dx="4" dy="4"/>
<feGaussianBlur stdDeviation="2"/>
<feColorMatrix type="matrix" values="0 0 0 0 1 0 0 0 0 0.3 0 0 0 0 0 0 0 0 1 0"/>
<feBlend mode="normal" in2="BackgroundImageFix" result="effect1_dropShadow_41_548"/>
<feBlend mode="normal" in="SourceGraphic" in2="effect1_dropShadow_41_548" result="shape"/>
</filter>
</defs>
</svg>
